<?xml version="1.0" standalone="no"?>
<!DOCTYPE svg PUBLIC "-//W3C//DTD SVG 20010904//EN"
 "http://www.w3.org/TR/2001/REC-SVG-20010904/DTD/svg10.dtd">
<svg version="1.0" xmlns="http://www.w3.org/2000/svg"
 width="772.000000pt" height="772.000000pt" viewBox="0 0 772.000000 772.000000"
 preserveAspectRatio="xMidYMid meet">
<metadata>
Created by potrace 1.11, written by Peter Selinger 2001-2013
</metadata>
<g transform="translate(0.000000,772.000000) scale(0.100000,-0.100000)"
fill="#000000" stroke="none">
<path d="M3586 7463 c-3 -3 -31 -7 -63 -9 -68 -4 -141 -11 -186 -19 -17 -3
-48 -7 -67 -9 -19 -3 -60 -10 -90 -16 -30 -6 -66 -13 -80 -15 -14 -3 -36 -7
-50 -10 -14 -3 -36 -8 -49 -11 -33 -7 -123 -29 -196 -49 -58 -16 -273 -87
-325 -108 -14 -6 -27 -11 -30 -12 -13 -4 -67 -26 -85 -35 -11 -5 -42 -19 -70
-30 -83 -36 -198 -93 -225 -111 -14 -9 -29 -18 -35 -19 -17 -3 -140 -74 -143
-82 -2 -4 -8 -8 -13 -8 -8 0 -186 -110 -214 -132 -5 -5 -50 -38 -100 -75 -88
-65 -102 -76 -200 -158 -161 -135 -357 -334 -491 -500 -27 -33 -53 -65 -59
-72 -5 -7 -15 -18 -21 -26 -27 -32 -187 -263 -192 -277 -3 -8 -8 -17 -12 -20
-3 -3 -23 -34 -44 -70 -20 -36 -42 -72 -47 -80 -21 -36 -59 -110 -58 -116 0
-4 -3 -10 -8 -13 -15 -11 -152 -306 -169 -366 -2 -5 -19 -55 -39 -110 -37
-100 -46 -126 -47 -135 0 -3 -5 -16 -10 -30 -5 -14 -11 -33 -13 -42 -2 -9 -13
-51 -25 -93 -23 -82 -23 -82 -45 -185 -11 -53 -35 -180 -40 -218 -2 -15 -6
-43 -9 -62 -24 -161 -31 -277 -30 -530 0 -223 7 -382 19 -435 3 -11 7 -42 10
-70 2 -27 7 -68 11 -90 3 -22 8 -49 9 -60 2 -11 4 -20 5 -20 1 0 3 -11 5 -25
1 -14 5 -36 8 -50 3 -14 13 -59 22 -100 8 -41 20 -88 25 -105 5 -16 16 -57 25
-90 9 -33 26 -89 38 -125 11 -36 22 -69 23 -75 2 -13 62 -170 79 -210 7 -16
24 -57 38 -90 39 -93 150 -311 206 -404 28 -46 51 -86 51 -87 0 -5 128 -192
174 -254 146 -198 322 -392 518 -573 103 -95 388 -317 406 -317 6 0 12 -4 14
-8 3 -7 119 -82 249 -160 l37 -22 26 35 c31 40 76 127 76 146 0 7 25 57 56
112 31 54 54 100 52 101 -1 2 -13 9 -26 15 -36 19 -39 32 -67 276 -4 33 -24
101 -45 150 -21 50 -45 113 -54 140 -22 69 -56 227 -50 236 2 4 1 10 -4 13 -4
3 -8 123 -7 268 1 236 3 271 23 338 11 41 18 78 14 82 -4 4 -26 8 -49 11 -55
5 -70 19 -18 17 72 -3 70 -5 85 67 7 38 15 77 16 88 1 11 3 21 4 23 2 1 3 5 4
10 13 48 28 100 33 112 4 8 7 20 8 25 1 6 20 69 42 140 40 127 76 245 78 255
0 3 4 11 8 18 5 6 6 12 2 12 -3 0 1 13 10 30 8 16 15 32 14 35 -2 11 14 70 21
80 9 11 7 64 -6 150 -9 64 -9 292 0 388 l5 59 -51 -69 c-47 -63 -109 -142
-133 -169 -5 -7 -32 -38 -60 -70 -56 -65 -150 -157 -186 -182 l-24 -17 23 30
c42 56 157 232 208 320 74 126 213 463 199 484 -3 6 -15 8 -28 5 -12 -3 -44
-6 -72 -9 -27 -2 -63 -6 -80 -8 -26 -5 -63 -9 -205 -23 -163 -16 -694 -24
-1030 -15 -63 2 -153 1 -200 -2 -83 -5 -84 -5 -40 8 56 16 53 17 -104 17 -72
0 -124 3 -116 8 7 4 27 9 44 9 32 2 79 8 84 11 1 2 5 3 10 4 63 15 60 29 -11
58 -52 21 -21 25 93 13 53 -6 231 -6 263 0 15 3 37 7 50 9 12 2 51 12 87 21
36 9 72 18 80 20 55 11 71 19 66 31 -3 9 12 16 51 24 57 12 167 51 213 75 14
7 63 32 110 55 107 53 326 170 405 216 33 19 69 39 80 44 11 6 27 14 35 20 15
10 282 172 329 201 14 7 30 17 35 22 33 24 178 117 183 117 3 0 18 10 35 21
19 14 26 24 19 29 -13 7 -81 5 -121 -4 -60 -14 -85 -16 -70 -6 12 8 108 41
130 44 3 1 19 7 35 13 45 19 89 36 95 38 16 5 67 28 143 64 48 22 89 39 91 38
1 -1 10 4 18 11 59 48 378 198 488 228 45 12 190 44 220 49 183 26 432 24 610
-5 36 -6 83 -13 105 -16 22 -2 47 -7 55 -10 8 -3 26 -8 40 -10 67 -13 298 -82
315 -94 6 -5 28 -13 51 -20 38 -12 44 -10 85 16 24 16 46 31 49 35 18 20 250
144 250 133 0 -3 13 2 30 11 16 8 32 15 35 15 3 0 6 0 8 1 1 0 9 2 17 4 8 2
71 20 140 41 69 20 132 38 140 39 8 2 15 4 15 6 0 1 9 3 20 5 11 1 76 19 145
39 123 36 142 41 189 51 14 3 28 7 33 10 4 3 16 7 25 9 47 10 278 79 358 107
139 48 369 163 419 210 11 10 23 18 27 18 15 0 -40 -139 -97 -246 -31 -60
-125 -244 -207 -409 -82 -165 -155 -307 -162 -315 -8 -8 -15 -19 -16 -25 -5
-25 -198 -315 -210 -315 -5 0 -9 -5 -9 -10 0 -11 -26 -43 -102 -124 -26 -28
-50 -59 -54 -69 -10 -30 65 -166 124 -223 44 -44 154 -126 172 -130 3 0 28
-11 55 -23 122 -55 208 -71 465 -84 19 -1 33 -6 30 -12 -5 -10 -12 -12 -70
-20 -19 -3 -46 -8 -60 -11 -73 -17 -286 -11 -400 11 -19 4 -46 8 -60 10 -14 2
-39 8 -57 14 l-31 9 10 -31 c5 -18 14 -41 19 -52 5 -11 11 -31 13 -45 3 -14 5
-26 7 -27 2 -3 4 -9 14 -42 5 -13 19 -44 31 -70 13 -25 24 -51 24 -58 0 -6 3
-13 8 -15 4 -1 18 -23 31 -48 88 -163 211 -322 398 -510 l133 -135 -24 -20
c-14 -11 -40 -33 -58 -48 -67 -56 -114 -90 -176 -124 -81 -45 -123 -55 -158
-37 -14 8 -28 14 -29 14 -2 0 1 -17 6 -37 14 -58 38 -169 44 -205 3 -17 8 -35
11 -39 2 -4 9 -31 15 -61 14 -69 16 -80 34 -163 9 -38 19 -86 22 -105 3 -19
23 -91 45 -160 22 -69 41 -129 42 -135 1 -5 4 -14 7 -20 3 -5 11 -30 18 -55 8
-25 20 -63 28 -85 8 -22 17 -47 18 -55 2 -8 16 -60 30 -115 24 -92 48 -192 60
-255 7 -38 24 -131 30 -170 13 -78 16 -95 20 -98 3 -3 135 158 190 233 16 22
31 42 34 45 14 12 51 70 51 79 0 5 4 11 9 13 11 4 146 218 174 275 12 24 25
43 29 43 4 0 8 6 8 14 0 7 18 46 40 86 22 40 40 76 40 80 0 4 10 27 23 51 22
43 82 178 82 189 1 3 6 14 12 25 6 11 11 22 11 25 1 3 3 12 6 20 78 213 155
491 180 650 3 19 7 44 9 55 16 81 23 135 43 325 15 142 8 686 -10 772 -3 13
-7 43 -10 68 -3 25 -8 56 -10 70 -3 14 -8 42 -10 64 -3 21 -8 46 -10 55 -3 9
-7 34 -11 56 -9 63 -32 161 -72 300 -9 33 -18 65 -19 71 -4 21 -45 139 -54
156 -6 10 -10 27 -10 37 0 11 -4 22 -9 25 -5 3 -12 18 -16 33 -3 15 -15 46
-25 68 -11 23 -28 66 -40 95 -32 82 -135 283 -206 405 -82 139 -88 149 -94
155 -4 4 -58 82 -121 176 -9 13 -28 38 -42 54 -15 16 -27 33 -27 36 0 4 -15
23 -32 44 -18 20 -51 58 -73 85 -117 141 -359 382 -470 467 -16 12 -36 29 -44
36 -57 55 -324 241 -482 335 -67 40 -306 167 -312 165 -1 0 -24 10 -52 22 -85
38 -107 47 -205 85 -52 20 -108 42 -125 48 -16 6 -35 12 -40 13 -6 1 -55 15
-110 32 -55 17 -113 34 -130 38 -16 4 -34 8 -40 10 -12 4 -143 33 -170 38
-159 30 -214 38 -415 62 -61 7 -617 13 -624 7z"/>
</g>
</svg>
