<?xml version="1.0" standalone="no"?>
<!DOCTYPE svg PUBLIC "-//W3C//DTD SVG 20010904//EN"
 "http://www.w3.org/TR/2001/REC-SVG-20010904/DTD/svg10.dtd">
<svg version="1.0" xmlns="http://www.w3.org/2000/svg"
 width="772.000000pt" height="772.000000pt" viewBox="0 0 772.000000 772.000000"
 preserveAspectRatio="xMidYMid meet">
<metadata>
Created by potrace 1.11, written by Peter Selinger 2001-2013
</metadata>
<g transform="translate(0.000000,772.000000) scale(0.100000,-0.100000)"
fill="#000000" stroke="none">
<path d="M3586 7463 c-3 -3 -31 -7 -63 -9 -68 -4 -141 -11 -186 -19 -17 -3
-48 -7 -67 -9 -19 -3 -60 -10 -90 -16 -30 -6 -66 -13 -80 -15 -14 -3 -36 -7
-50 -10 -14 -3 -36 -8 -49 -11 -33 -7 -124 -30 -196 -49 -75 -20 -327 -106
-340 -115 -5 -4 -21 -11 -35 -15 -23 -7 -57 -21 -150 -62 -79 -35 -187 -88
-210 -104 -14 -9 -29 -18 -35 -19 -17 -3 -140 -74 -143 -82 -2 -4 -8 -8 -13
-8 -8 0 -186 -110 -214 -132 -5 -5 -50 -38 -100 -75 -88 -65 -102 -76 -200
-158 -99 -83 -345 -319 -345 -331 0 -3 -12 -17 -28 -32 -15 -15 -59 -65 -97
-112 -38 -47 -74 -90 -80 -97 -5 -7 -15 -18 -21 -26 -27 -32 -187 -263 -192
-277 -3 -8 -9 -17 -13 -20 -11 -8 -149 -254 -149 -267 0 -6 -4 -13 -8 -15 -15
-6 -143 -284 -134 -292 3 -3 0 -6 -6 -6 -7 0 -12 -5 -12 -11 0 -6 -21 -68 -46
-138 -45 -123 -55 -151 -56 -161 0 -3 -5 -16 -10 -30 -5 -14 -11 -33 -13 -42
-2 -9 -13 -51 -25 -93 -23 -82 -23 -82 -45 -185 -11 -53 -35 -180 -40 -218 -2
-15 -6 -43 -9 -62 -24 -161 -31 -277 -30 -530 0 -222 7 -390 19 -430 2 -8 7
-42 10 -75 6 -62 9 -88 19 -140 3 -16 8 -43 10 -60 3 -16 8 -39 10 -50 3 -11
12 -54 21 -95 8 -41 20 -88 25 -105 5 -16 16 -57 25 -90 9 -33 26 -89 38 -125
11 -36 22 -69 23 -75 2 -13 62 -170 79 -210 7 -16 24 -57 38 -90 39 -93 150
-311 206 -404 28 -46 51 -86 51 -87 0 -7 156 -232 204 -294 104 -136 159 -201
276 -323 175 -184 308 -302 505 -448 148 -110 403 -271 416 -263 19 11 82 120
98 168 10 30 39 88 64 129 26 41 47 79 47 85 0 6 -9 13 -19 17 -37 11 -46 32
-56 130 -3 28 -8 61 -10 75 -3 14 -7 48 -10 75 -7 60 -11 76 -37 135 -54 122
-76 187 -92 280 -2 8 -6 26 -9 40 -16 63 -19 110 -22 330 -2 215 -1 243 20
335 13 55 20 103 17 107 -4 4 -26 8 -49 11 -62 5 -65 17 -3 16 48 -2 77 12 65
31 -2 4 0 22 5 41 5 19 11 45 13 59 7 39 26 107 54 195 14 44 29 94 33 110 4
17 36 120 70 230 34 110 62 205 64 210 1 6 4 15 8 20 7 12 3 86 -9 165 -8 59
-8 278 1 373 l5 59 -51 -69 c-47 -63 -109 -142 -133 -169 -5 -7 -32 -38 -60
-70 -56 -65 -150 -157 -186 -182 l-24 -17 23 30 c42 56 157 232 208 320 74
126 213 463 199 484 -3 6 -15 8 -28 5 -12 -3 -44 -6 -72 -9 -27 -2 -63 -6 -80
-8 -16 -3 -61 -9 -100 -13 -38 -3 -86 -8 -105 -10 -158 -16 -691 -24 -1030
-15 -63 2 -153 1 -200 -2 -83 -5 -84 -5 -40 8 56 16 53 17 -104 17 -72 0 -124
3 -116 8 7 4 27 9 44 9 32 2 79 8 84 11 1 2 5 3 10 4 63 15 60 29 -11 58 -52
21 -21 25 93 13 53 -6 231 -6 263 0 15 3 37 7 50 9 12 2 51 12 87 21 36 9 72
18 80 20 55 11 71 19 66 31 -3 9 12 16 51 24 57 12 167 51 213 75 14 7 63 32
110 55 107 53 326 170 405 216 33 19 69 39 80 44 11 6 27 14 35 20 15 10 282
172 329 201 14 7 30 17 35 22 33 24 178 117 183 117 3 0 18 10 35 21 19 14 26
24 19 29 -13 7 -81 5 -121 -4 -60 -14 -85 -16 -70 -6 12 8 108 41 130 44 3 1
19 7 35 13 45 19 89 36 95 38 16 5 67 28 143 64 48 22 89 39 91 38 1 -1 10 4
18 11 59 48 378 198 488 228 45 12 190 44 220 49 183 26 432 24 610 -5 36 -6
83 -13 105 -16 22 -2 47 -7 55 -10 8 -3 26 -8 40 -10 67 -13 298 -82 315 -94
6 -5 28 -13 51 -20 38 -12 44 -10 85 16 24 16 46 31 49 35 18 20 250 144 250
133 0 -3 13 2 30 11 16 8 32 15 35 15 3 0 6 0 8 1 1 0 9 2 17 4 8 2 71 20 140
41 69 20 132 38 140 39 8 2 15 4 15 6 0 1 9 3 20 5 11 1 76 19 145 39 123 36
142 41 189 51 14 3 28 7 33 10 4 3 16 7 25 9 47 10 278 79 358 107 139 48 369
163 419 210 11 10 23 18 27 18 15 0 -40 -139 -97 -246 -31 -60 -125 -244 -207
-409 -82 -165 -155 -307 -162 -315 -8 -8 -15 -19 -16 -25 -5 -25 -198 -315
-210 -315 -5 0 -9 -5 -9 -10 0 -11 -28 -45 -102 -124 -27 -28 -51 -59 -54 -69
-10 -30 65 -166 124 -223 44 -44 154 -127 172 -130 3 0 31 -12 64 -27 32 -15
64 -27 71 -27 6 0 15 -3 19 -8 4 -4 11 -7 14 -7 4 -1 30 -5 57 -10 73 -12 169
-22 295 -28 19 -1 33 -6 30 -12 -5 -10 -12 -12 -70 -20 -19 -3 -46 -8 -60 -11
-53 -12 -269 -10 -350 3 -118 18 -131 21 -166 32 l-31 9 12 -42 c32 -103 75
-220 90 -242 8 -13 15 -30 15 -39 0 -8 5 -15 10 -15 6 0 10 -4 10 -10 0 -19
103 -184 178 -282 42 -56 142 -169 224 -252 l147 -151 -22 -18 c-12 -10 -39
-34 -60 -53 -21 -19 -40 -34 -42 -34 -3 0 -26 -16 -52 -36 -100 -76 -215 -116
-245 -86 -21 21 -26 13 -17 -25 14 -58 38 -169 44 -205 3 -17 8 -34 10 -38 2
-4 7 -20 9 -36 3 -16 8 -40 11 -54 3 -14 8 -34 10 -45 3 -11 12 -51 20 -90 9
-38 19 -86 22 -105 3 -19 23 -91 45 -160 22 -69 41 -129 42 -135 1 -5 4 -14 7
-20 3 -5 11 -30 18 -55 8 -25 20 -63 28 -85 8 -22 17 -47 18 -55 2 -8 16 -60
30 -115 15 -55 29 -111 31 -125 3 -14 9 -41 14 -60 5 -19 11 -48 14 -65 18
-99 26 -144 31 -175 13 -78 16 -95 20 -98 3 -3 145 171 190 233 11 16 25 33
30 39 22 24 55 76 55 85 0 5 4 11 9 13 11 4 151 225 151 238 0 6 5 10 11 10 5
0 8 4 4 9 -3 5 -1 12 4 15 5 4 31 48 57 99 26 50 51 99 55 107 12 23 65 139
93 203 14 31 22 57 18 57 -3 0 -1 5 6 12 7 7 12 20 12 30 0 10 4 18 8 18 5 0
9 6 9 13 1 6 19 64 40 127 59 169 116 385 137 520 3 19 7 44 9 55 16 81 23
135 43 325 15 142 8 686 -10 772 -3 13 -7 43 -10 68 -3 25 -8 56 -10 70 -3 14
-8 42 -10 64 -3 21 -8 46 -10 55 -3 9 -7 34 -11 56 -9 63 -32 161 -72 300 -9
33 -18 65 -19 71 -4 21 -45 139 -54 156 -6 10 -10 27 -10 37 0 11 -4 22 -9 25
-5 3 -12 18 -16 33 -3 15 -17 52 -31 81 -13 29 -24 55 -24 58 0 21 -139 298
-216 429 -82 139 -88 149 -94 155 -4 4 -58 82 -121 176 -9 13 -28 38 -42 54
-15 16 -27 33 -27 36 0 4 -15 23 -32 44 -18 20 -51 58 -73 85 -117 141 -359
382 -470 467 -16 12 -36 29 -44 36 -57 55 -324 241 -482 335 -67 40 -306 167
-312 165 -1 0 -24 10 -52 22 -85 38 -107 47 -205 85 -52 20 -108 42 -125 48
-16 6 -35 12 -40 13 -6 1 -55 15 -110 32 -55 17 -113 34 -130 38 -16 4 -34 8
-40 10 -12 4 -143 33 -170 38 -159 30 -214 38 -415 62 -61 7 -617 13 -624 7z"/>
<path d="M2322 3011 c-14 -23 -18 -43 -14 -74 4 -38 3 -40 -12 -28 -9 8 -19
12 -21 9 -3 -3 -23 -56 -45 -119 -22 -63 -45 -123 -50 -134 -7 -17 -31 -88
-35 -105 -1 -3 -6 -16 -12 -30 -11 -23 -67 -179 -69 -190 0 -3 -4 -12 -7 -20
-8 -18 -47 -132 -47 -137 0 -19 305 95 322 121 4 6 17 40 29 76 12 36 24 70
28 75 3 6 6 15 8 20 1 6 19 60 41 120 41 115 43 135 15 188 -9 18 -38 83 -64
146 l-47 115 -20 -33z"/>
<path d="M2217 2174 c-1 -1 -46 -5 -101 -8 -54 -3 -100 -7 -101 -8 -3 -3 -12
-48 -22 -108 -3 -19 -9 -39 -13 -45 -8 -11 2 -47 13 -46 18 2 21 0 9 -7 -23
-15 -31 -74 -27 -196 4 -132 13 -223 30 -296 1 -3 5 -21 9 -40 8 -36 33 -124
43 -150 9 -22 9 -21 17 -62 5 -21 12 -38 18 -38 21 0 62 51 63 78 0 15 11 46
25 67 53 88 53 86 28 112 l-21 23 27 0 c27 0 27 0 20 53 -13 95 -7 393 10 437
3 8 10 42 16 75 5 33 12 69 14 80 21 94 22 85 -19 83 -20 -2 -37 -4 -38 -4z"/>
<path d="M6141 2082 c-6 -18 -9 -144 -6 -357 l4 -330 46 -180 c26 -99 48 -188
50 -199 4 -17 26 -55 47 -81 4 -5 22 -28 38 -50 16 -22 33 -44 37 -50 5 -5 19
-27 33 -47 24 -36 28 -40 50 -42 5 -1 69 57 141 129 150 148 142 123 94 291
-25 88 -36 119 -82 222 -13 29 -23 54 -23 57 0 2 -18 43 -40 90 -22 47 -40 92
-40 99 0 8 -7 19 -15 26 -9 7 -13 15 -11 18 3 2 -5 21 -18 41 -12 20 -48 89
-80 153 -61 124 -121 197 -183 223 -30 13 -32 12 -42 -13z"/>
<path d="M6182 991 c-10 -6 -11 -44 -6 -177 4 -93 7 -190 8 -217 1 -26 5 -47
9 -47 4 0 10 0 15 0 4 0 23 14 42 31 19 17 45 38 57 46 16 11 20 19 13 31 -9
17 -36 99 -45 138 -11 45 -61 184 -70 193 -6 6 -16 7 -23 2z"/>
<path d="M6006 732 c-3 -5 -25 -62 -49 -128 -25 -65 -63 -161 -85 -211 -22
-51 -37 -93 -33 -93 6 0 75 43 135 82 53 36 55 40 61 138 7 99 7 151 0 185 -2
11 -4 23 -4 28 -1 10 -19 9 -25 -1z"/>
</g>
</svg>
