<svg xmlns="http://www.w3.org/2000/svg" viewBox="0 0 256 292.57"><defs><style>.cls-1{fill:#fff;}</style></defs><title>dlogo</title><g id="Layer_2" data-name="Layer 2"><g id="Layer_1-2" data-name="Layer 1"><path class="cls-1" d="M226,0H30A30.06,30.06,0,0,0,0,30.13V227.91a30.06,30.06,0,0,0,30,30.14H195.88L188.12,231l18.73,17.4,17.7,16.39L256,292.57V30.13A30.06,30.06,0,0,0,226,0ZM169.55,191.05s-5.27-6.29-9.66-11.85c19.16-5.41,26.48-17.41,26.48-17.41a83.64,83.64,0,0,1-16.82,8.63,96.46,96.46,0,0,1-21.22,6.29,102.47,102.47,0,0,1-37.88-.14,123,123,0,0,1-21.51-6.29,86.53,86.53,0,0,1-10.68-5c-.44-.29-.87-.44-1.31-.73a1.84,1.84,0,0,1-.59-.44c-2.63-1.46-4.09-2.48-4.09-2.48s7,11.7,25.6,17.26c-4.39,5.56-9.81,12.14-9.81,12.14-32.33-1-44.61-22.24-44.61-22.24,0-47.1,21.06-85.28,21.06-85.28,21.07-15.8,41.11-15.36,41.11-15.36l1.46,1.75C80.75,77.53,68.61,89.09,68.61,89.09s3.22-1.76,8.63-4.24c15.65-6.88,28.09-8.78,33.21-9.22a13.87,13.87,0,0,1,2.48-.29,123.79,123.79,0,0,1,29.55-.3,119.2,119.2,0,0,1,44,14s-11.55-11-36.42-18.58l2-2.34s20-.44,41.1,15.36c0,0,21.07,38.18,21.07,85.28C214.31,168.81,201.87,190,169.55,191.05Zm-68-68.32c-8.34,0-14.92,7.32-14.92,16.24s6.73,16.24,14.92,16.24c8.34,0,14.92-7.32,14.92-16.24.15-8.92-6.58-16.24-14.92-16.24m53.4,0c-8.34,0-14.92,7.32-14.92,16.24s6.72,16.24,14.92,16.24,14.92-7.32,14.92-16.24-6.59-16.24-14.92-16.24"/></g></g></svg>