<svg xmlns="http://www.w3.org/2000/svg" xmlns:xlink="http://www.w3.org/1999/xlink" viewBox="0 0 386 361.56"><defs><style>.cls-1{fill:url(#linear-gradient);}</style><linearGradient id="linear-gradient" x1="96.49" y1="360.16" x2="289.51" y2="25.83" gradientUnits="userSpaceOnUse"><stop offset="0" stop-color="#67b8a1"/><stop offset="0" stop-color="#ff6289"/><stop offset="0.04" stop-color="#ef5c83"/><stop offset="0.19" stop-color="#b3446c"/><stop offset="0.34" stop-color="#7f2f58"/><stop offset="0.49" stop-color="#551e47"/><stop offset="0.63" stop-color="#34113a"/><stop offset="0.77" stop-color="#1c0831"/><stop offset="0.89" stop-color="#0e022c"/><stop offset="1" stop-color="#09002a"/></linearGradient></defs><title>Logo</title><g id="Layer_2" data-name="Layer 2"><g id="Layer_1-2" data-name="Layer 1"><g id="Layer_2-2" data-name="Layer 2-2"><path class="cls-1" d="M100.69,265.64l-2,9.65,2.06.19c-.59.55-1.54,1-1.67,1.63a24.44,24.44,0,0,0-.53,5.32,100.68,100.68,0,0,0,1.15,15.31c1,6.06,3.18,11.7,4.68,17.73,1.88-1.59,4.25-2.53,3.32-5.19-.16-.45.51-1.16.84-1.72,1-1.72,2-3.42,3-5.19l-2.1-2.26h1.26c.39,0,.76-.05,1.49-.11-2.6-12.38-.26-24.36,2.47-36.4ZM120.14,229c-1-2.41-2-4.9-3-7.52-2.53,2.34-2,4.86-1.32,7.41-.34-.24-.45-.52-.67-.7a11.18,11.18,0,0,0-1.46-.86c-4.45,12.39-8.8,24.56-13.29,37.08a8,8,0,0,0,2,0c4.6-1.7,9.08-3.41,13.58-5.19.4-.16.68-.78.85-1.23,2.3-6.31,4.6-12.6,6.79-18.94a4.32,4.32,0,0,0-.12-2.88C122.46,233.75,121.14,231.42,120.14,229ZM299.77,337.84c-.85,2.34-1.51,4.74-2.42,7.06-1.92,4.7-3.81,9.39-5.79,14.05q5-3,9.8-6.22c.35-3.87.51-7.77.76-11.65a23.82,23.82,0,0,0-.83-4.95C300.46,337,299.94,337.38,299.77,337.84ZM193,0C86.41,0,0,86.41,0,193A192.93,192.93,0,0,0,99,361.56c2-3.06,4.61-5.88,5.19-9.63a10,10,0,0,1,1.62-3.25c1.29-2.23,2.65-4.44,4.12-6.89a4.13,4.13,0,0,1-3.81-4c-.54-4.43-1.15-8.86-1.78-13.28a7.89,7.89,0,0,0-.68-2.25,68.79,68.79,0,0,1-7-27.78c-.15-5.64,0-11.3,0-16.95a7.63,7.63,0,0,1,.08-1.72c.71-3.37,1.45-6.75,2.21-10.18l-5.63-.46v-.56h5.48c.83-3.85,1.39-7.57,2.46-11.17,3.36-11.34,6.89-22.62,10.34-33.94a6.71,6.71,0,0,0,.31-3.17A66.46,66.46,0,0,1,111,195.6c.22-1.88.34-3.75.52-5.62-7.06,9.11-13.55,18.43-23,25.64,9.83-13,17.66-26.82,22.09-42.28h-1.68c-8.31.89-16.6,2.08-24.93,2.56-10.46.55-20.94.59-31.42.54-7.57,0-15.12-1.17-22.71-.15a34.37,34.37,0,0,1-4.76,0V176l4.32-.68v-.39H14.05c4.08-1.11,8.52-.68,12.51-2.68l-6-2.89c6,.08,11.83,1.15,17.52.7s11.48-2.39,17.16-3.68l-.14-.62L54,165.25c2.44-.56,4.78-1,7-1.66A48.38,48.38,0,0,0,67.57,161a478.69,478.69,0,0,0,53-30c3.09-2,6.2-3.94,9.79-6.23-4.17-1.69-7.48.83-11.59.71,1-.43,1.4-.64,1.82-.77,11.49-3.4,22.07-8.45,32.34-14.21a87.76,87.76,0,0,1,16.82-7.12c13.48-4.15,27.38-4.4,41.35-2.4a112.67,112.67,0,0,1,30.5,8.3h.1c6.08-4.3,12.35-8.5,19.66-10.83,13.06-4.06,26.35-7.49,39.54-11.23,10.5-3,20.94-5.55,30.13-11.24,1.86-1.1,6-3,8-5,1-1-1.47,6-2.09,7.15-4.43,8.61-9.08,17.17-13.22,25.9-7.09,15-15,29.46-27.13,41.77-.41.43-.91,1.26-.72,1.63,1.61,3.12,2.79,6.63,5.18,9.18a39.67,39.67,0,0,0,25.11,12.27c4.27.49,8.57.63,12.87.94v.9c-4.06.58-8,1.46-12.15,1.68a64.37,64.37,0,0,1-22.23-2.81c1.5,4.5,2.54,8.88,4.4,12.95A105.2,105.2,0,0,0,328.75,211c3.3,3.48,6.83,6.81,10.25,10.2,0,0-17.35,16.42-22,10.85l-.61-.83c.34.51,7.76,34.71,7.88,35.28,1.66,5.19,3.35,10.38,5,15.51a204.23,204.23,0,0,1,8.78,38.35A192.3,192.3,0,0,0,386,193C386,86.41,299.59,0,193,0ZM312.07,328.72c-.48-1.47-.85-3-1.42-4.41a1.69,1.69,0,0,0-1.38-.5,1.34,1.34,0,0,0-.84,1c0,1.52.16,3,.22,4.54.21,5.91.72,11.83.53,17.73q3.57-2.7,7-5.55c-.63-2-1.25-4-1.89-6C313.58,333.27,312.81,331,312.07,328.72Zm13.35-34.17c-.52-1.1-.75-2.33-1.3-3.42-1.9-3.72-4.12-7.33-5.74-11.14-1.83-4.25-4.18-8.05-8.29-10.8a13,13,0,0,0-2.66-1,9.8,9.8,0,0,0-.85,2.74c0,4.15.2,8.23.24,12.35.07,6.32-.17,12.65.19,19,.18,3.37,1.28,6.71,2.09,10s1.76,6.73,2.65,10.09a6.81,6.81,0,0,0,.75,2.21c2.19,3.12,4.7,6,6.66,9.16a7.19,7.19,0,0,0,2.68,3q7.21-6.46,13.77-13.64-.58-2.91-1.31-5.8C332.34,309.34,328.91,302,325.42,294.55Z"/></g></g></g></svg>