<svg xmlns="http://www.w3.org/2000/svg" viewBox="0 0 232.75 233"><defs><style>.cls-1{fill:#fff;}</style></defs><title>slogo</title><g id="Layer_2" data-name="Layer 2"><g id="Layer_1-2" data-name="Layer 1"><path class="cls-1" d="M116.25,0A116.52,116.52,0,0,0,0,108.76l.09.15c0-1.32.09-2.08.09-2.08l62.6,25.77a31.43,31.43,0,0,1,5.45-2.88,32,32,0,0,1,13.65-2.41L110.39,85.9c0-.19,0-.38,0-.58a44.25,44.25,0,1,1,44.25,44.34l-1,0-40.79,29.15A32.3,32.3,0,0,1,49,166.68L5,148.53c-.13.49-.26,1-.4,1.48h0A116.51,116.51,0,1,0,116.25,0Z"/><path class="cls-1" d="M72.51,176.42l-14.4-6a24.86,24.86,0,0,0,45.43-1.21h0a24.9,24.9,0,0,0-31.79-32.92l14.89,6.17a18.38,18.38,0,0,1-14.12,33.93Z"/><path class="cls-1" d="M184.11,85.32a29.48,29.48,0,1,0-29.48,29.54A29.54,29.54,0,0,0,184.11,85.32Zm-51.57,0a22.15,22.15,0,1,1,22.13,22.18A22.16,22.16,0,0,1,132.54,85.28Z"/></g></g></svg>